<svg xmlns="http://www.w3.org/2000/svg" viewBox="0 0 880 364" width="880" height="364" role="img">
  <defs><marker id="arrow" viewBox="0 0 10 10" refX="9" refY="5" markerWidth="7" markerHeight="7" orient="auto-start-reverse"><path d="M 0 0 L 10 5 L 0 10 z" fill="#5d6b85"/></marker></defs>
  <text x="48" y="40" font-family="Inter, -apple-system, BlinkMacSystemFont, 'Segoe UI', Helvetica, Arial, sans-serif" font-size="17" font-weight="600" fill="#16233d" text-anchor="start">The directory tree follows the plate</text>
  <text x="48" y="63" font-family="Inter, -apple-system, BlinkMacSystemFont, 'Segoe UI', Helvetica, Arial, sans-serif" font-size="13" font-weight="400" fill="#5d6b85" text-anchor="start">so the path B/03/0 is row B, column 3, image 0</text>
  <rect x="38" y="76" width="212.0" height="158.0" rx="6" fill="#f2f5fa" stroke="#d5deeb" stroke-width="1.2"/>
  <rect x="48.0" y="96.0" width="12.5" height="12.5" rx="7" fill="#dfe8f5" stroke="#b9c8de" stroke-width="0.9"/>
  <rect x="63.5" y="96.0" width="12.5" height="12.5" rx="7" fill="#dfe8f5" stroke="#b9c8de" stroke-width="0.9"/>
  <rect x="79.0" y="96.0" width="12.5" height="12.5" rx="7" fill="#dfe8f5" stroke="#b9c8de" stroke-width="0.9"/>
  <rect x="94.5" y="96.0" width="12.5" height="12.5" rx="7" fill="#dfe8f5" stroke="#b9c8de" stroke-width="0.9"/>
  <rect x="110.0" y="96.0" width="12.5" height="12.5" rx="7" fill="#dfe8f5" stroke="#b9c8de" stroke-width="0.9"/>
  <rect x="125.5" y="96.0" width="12.5" height="12.5" rx="7" fill="#dfe8f5" stroke="#b9c8de" stroke-width="0.9"/>
  <rect x="141.0" y="96.0" width="12.5" height="12.5" rx="7" fill="#dfe8f5" stroke="#b9c8de" stroke-width="0.9"/>
  <rect x="156.5" y="96.0" width="12.5" height="12.5" rx="7" fill="#dfe8f5" stroke="#b9c8de" stroke-width="0.9"/>
  <rect x="172.0" y="96.0" width="12.5" height="12.5" rx="7" fill="#dfe8f5" stroke="#b9c8de" stroke-width="0.9"/>
  <rect x="187.5" y="96.0" width="12.5" height="12.5" rx="7" fill="#dfe8f5" stroke="#b9c8de" stroke-width="0.9"/>
  <rect x="203.0" y="96.0" width="12.5" height="12.5" rx="7" fill="#dfe8f5" stroke="#b9c8de" stroke-width="0.9"/>
  <rect x="218.5" y="96.0" width="12.5" height="12.5" rx="7" fill="#dfe8f5" stroke="#b9c8de" stroke-width="0.9"/>
  <rect x="48.0" y="111.5" width="12.5" height="12.5" rx="7" fill="#dfe8f5" stroke="#b9c8de" stroke-width="0.9"/>
  <rect x="63.5" y="111.5" width="12.5" height="12.5" rx="7" fill="#dfe8f5" stroke="#b9c8de" stroke-width="0.9"/>
  <rect x="79.0" y="111.5" width="12.5" height="12.5" rx="7" fill="#1f7a8c" stroke="#1f7a8c" stroke-width="0.9"/>
  <rect x="94.5" y="111.5" width="12.5" height="12.5" rx="7" fill="#dfe8f5" stroke="#b9c8de" stroke-width="0.9"/>
  <rect x="110.0" y="111.5" width="12.5" height="12.5" rx="7" fill="#dfe8f5" stroke="#b9c8de" stroke-width="0.9"/>
  <rect x="125.5" y="111.5" width="12.5" height="12.5" rx="7" fill="#dfe8f5" stroke="#b9c8de" stroke-width="0.9"/>
  <rect x="141.0" y="111.5" width="12.5" height="12.5" rx="7" fill="#dfe8f5" stroke="#b9c8de" stroke-width="0.9"/>
  <rect x="156.5" y="111.5" width="12.5" height="12.5" rx="7" fill="#dfe8f5" stroke="#b9c8de" stroke-width="0.9"/>
  <rect x="172.0" y="111.5" width="12.5" height="12.5" rx="7" fill="#dfe8f5" stroke="#b9c8de" stroke-width="0.9"/>
  <rect x="187.5" y="111.5" width="12.5" height="12.5" rx="7" fill="#dfe8f5" stroke="#b9c8de" stroke-width="0.9"/>
  <rect x="203.0" y="111.5" width="12.5" height="12.5" rx="7" fill="#dfe8f5" stroke="#b9c8de" stroke-width="0.9"/>
  <rect x="218.5" y="111.5" width="12.5" height="12.5" rx="7" fill="#dfe8f5" stroke="#b9c8de" stroke-width="0.9"/>
  <rect x="48.0" y="127.0" width="12.5" height="12.5" rx="7" fill="#dfe8f5" stroke="#b9c8de" stroke-width="0.9"/>
  <rect x="63.5" y="127.0" width="12.5" height="12.5" rx="7" fill="#dfe8f5" stroke="#b9c8de" stroke-width="0.9"/>
  <rect x="79.0" y="127.0" width="12.5" height="12.5" rx="7" fill="#dfe8f5" stroke="#b9c8de" stroke-width="0.9"/>
  <rect x="94.5" y="127.0" width="12.5" height="12.5" rx="7" fill="#dfe8f5" stroke="#b9c8de" stroke-width="0.9"/>
  <rect x="110.0" y="127.0" width="12.5" height="12.5" rx="7" fill="#dfe8f5" stroke="#b9c8de" stroke-width="0.9"/>
  <rect x="125.5" y="127.0" width="12.5" height="12.5" rx="7" fill="#dfe8f5" stroke="#b9c8de" stroke-width="0.9"/>
  <rect x="141.0" y="127.0" width="12.5" height="12.5" rx="7" fill="#dfe8f5" stroke="#b9c8de" stroke-width="0.9"/>
  <rect x="156.5" y="127.0" width="12.5" height="12.5" rx="7" fill="#dfe8f5" stroke="#b9c8de" stroke-width="0.9"/>
  <rect x="172.0" y="127.0" width="12.5" height="12.5" rx="7" fill="#dfe8f5" stroke="#b9c8de" stroke-width="0.9"/>
  <rect x="187.5" y="127.0" width="12.5" height="12.5" rx="7" fill="#dfe8f5" stroke="#b9c8de" stroke-width="0.9"/>
  <rect x="203.0" y="127.0" width="12.5" height="12.5" rx="7" fill="#dfe8f5" stroke="#b9c8de" stroke-width="0.9"/>
  <rect x="218.5" y="127.0" width="12.5" height="12.5" rx="7" fill="#dfe8f5" stroke="#b9c8de" stroke-width="0.9"/>
  <rect x="48.0" y="142.5" width="12.5" height="12.5" rx="7" fill="#dfe8f5" stroke="#b9c8de" stroke-width="0.9"/>
  <rect x="63.5" y="142.5" width="12.5" height="12.5" rx="7" fill="#dfe8f5" stroke="#b9c8de" stroke-width="0.9"/>
  <rect x="79.0" y="142.5" width="12.5" height="12.5" rx="7" fill="#dfe8f5" stroke="#b9c8de" stroke-width="0.9"/>
  <rect x="94.5" y="142.5" width="12.5" height="12.5" rx="7" fill="#dfe8f5" stroke="#b9c8de" stroke-width="0.9"/>
  <rect x="110.0" y="142.5" width="12.5" height="12.5" rx="7" fill="#dfe8f5" stroke="#b9c8de" stroke-width="0.9"/>
  <rect x="125.5" y="142.5" width="12.5" height="12.5" rx="7" fill="#dfe8f5" stroke="#b9c8de" stroke-width="0.9"/>
  <rect x="141.0" y="142.5" width="12.5" height="12.5" rx="7" fill="#dfe8f5" stroke="#b9c8de" stroke-width="0.9"/>
  <rect x="156.5" y="142.5" width="12.5" height="12.5" rx="7" fill="#dfe8f5" stroke="#b9c8de" stroke-width="0.9"/>
  <rect x="172.0" y="142.5" width="12.5" height="12.5" rx="7" fill="#dfe8f5" stroke="#b9c8de" stroke-width="0.9"/>
  <rect x="187.5" y="142.5" width="12.5" height="12.5" rx="7" fill="#dfe8f5" stroke="#b9c8de" stroke-width="0.9"/>
  <rect x="203.0" y="142.5" width="12.5" height="12.5" rx="7" fill="#dfe8f5" stroke="#b9c8de" stroke-width="0.9"/>
  <rect x="218.5" y="142.5" width="12.5" height="12.5" rx="7" fill="#dfe8f5" stroke="#b9c8de" stroke-width="0.9"/>
  <rect x="48.0" y="158.0" width="12.5" height="12.5" rx="7" fill="#dfe8f5" stroke="#b9c8de" stroke-width="0.9"/>
  <rect x="63.5" y="158.0" width="12.5" height="12.5" rx="7" fill="#dfe8f5" stroke="#b9c8de" stroke-width="0.9"/>
  <rect x="79.0" y="158.0" width="12.5" height="12.5" rx="7" fill="#dfe8f5" stroke="#b9c8de" stroke-width="0.9"/>
  <rect x="94.5" y="158.0" width="12.5" height="12.5" rx="7" fill="#dfe8f5" stroke="#b9c8de" stroke-width="0.9"/>
  <rect x="110.0" y="158.0" width="12.5" height="12.5" rx="7" fill="#dfe8f5" stroke="#b9c8de" stroke-width="0.9"/>
  <rect x="125.5" y="158.0" width="12.5" height="12.5" rx="7" fill="#dfe8f5" stroke="#b9c8de" stroke-width="0.9"/>
  <rect x="141.0" y="158.0" width="12.5" height="12.5" rx="7" fill="#dfe8f5" stroke="#b9c8de" stroke-width="0.9"/>
  <rect x="156.5" y="158.0" width="12.5" height="12.5" rx="7" fill="#dfe8f5" stroke="#b9c8de" stroke-width="0.9"/>
  <rect x="172.0" y="158.0" width="12.5" height="12.5" rx="7" fill="#dfe8f5" stroke="#b9c8de" stroke-width="0.9"/>
  <rect x="187.5" y="158.0" width="12.5" height="12.5" rx="7" fill="#dfe8f5" stroke="#b9c8de" stroke-width="0.9"/>
  <rect x="203.0" y="158.0" width="12.5" height="12.5" rx="7" fill="#dfe8f5" stroke="#b9c8de" stroke-width="0.9"/>
  <rect x="218.5" y="158.0" width="12.5" height="12.5" rx="7" fill="#dfe8f5" stroke="#b9c8de" stroke-width="0.9"/>
  <rect x="48.0" y="173.5" width="12.5" height="12.5" rx="7" fill="#dfe8f5" stroke="#b9c8de" stroke-width="0.9"/>
  <rect x="63.5" y="173.5" width="12.5" height="12.5" rx="7" fill="#dfe8f5" stroke="#b9c8de" stroke-width="0.9"/>
  <rect x="79.0" y="173.5" width="12.5" height="12.5" rx="7" fill="#dfe8f5" stroke="#b9c8de" stroke-width="0.9"/>
  <rect x="94.5" y="173.5" width="12.5" height="12.5" rx="7" fill="#dfe8f5" stroke="#b9c8de" stroke-width="0.9"/>
  <rect x="110.0" y="173.5" width="12.5" height="12.5" rx="7" fill="#dfe8f5" stroke="#b9c8de" stroke-width="0.9"/>
  <rect x="125.5" y="173.5" width="12.5" height="12.5" rx="7" fill="#dfe8f5" stroke="#b9c8de" stroke-width="0.9"/>
  <rect x="141.0" y="173.5" width="12.5" height="12.5" rx="7" fill="#dfe8f5" stroke="#b9c8de" stroke-width="0.9"/>
  <rect x="156.5" y="173.5" width="12.5" height="12.5" rx="7" fill="#dfe8f5" stroke="#b9c8de" stroke-width="0.9"/>
  <rect x="172.0" y="173.5" width="12.5" height="12.5" rx="7" fill="#dfe8f5" stroke="#b9c8de" stroke-width="0.9"/>
  <rect x="187.5" y="173.5" width="12.5" height="12.5" rx="7" fill="#dfe8f5" stroke="#b9c8de" stroke-width="0.9"/>
  <rect x="203.0" y="173.5" width="12.5" height="12.5" rx="7" fill="#dfe8f5" stroke="#b9c8de" stroke-width="0.9"/>
  <rect x="218.5" y="173.5" width="12.5" height="12.5" rx="7" fill="#dfe8f5" stroke="#b9c8de" stroke-width="0.9"/>
  <rect x="48.0" y="189.0" width="12.5" height="12.5" rx="7" fill="#dfe8f5" stroke="#b9c8de" stroke-width="0.9"/>
  <rect x="63.5" y="189.0" width="12.5" height="12.5" rx="7" fill="#dfe8f5" stroke="#b9c8de" stroke-width="0.9"/>
  <rect x="79.0" y="189.0" width="12.5" height="12.5" rx="7" fill="#dfe8f5" stroke="#b9c8de" stroke-width="0.9"/>
  <rect x="94.5" y="189.0" width="12.5" height="12.5" rx="7" fill="#dfe8f5" stroke="#b9c8de" stroke-width="0.9"/>
  <rect x="110.0" y="189.0" width="12.5" height="12.5" rx="7" fill="#dfe8f5" stroke="#b9c8de" stroke-width="0.9"/>
  <rect x="125.5" y="189.0" width="12.5" height="12.5" rx="7" fill="#dfe8f5" stroke="#b9c8de" stroke-width="0.9"/>
  <rect x="141.0" y="189.0" width="12.5" height="12.5" rx="7" fill="#dfe8f5" stroke="#b9c8de" stroke-width="0.9"/>
  <rect x="156.5" y="189.0" width="12.5" height="12.5" rx="7" fill="#dfe8f5" stroke="#b9c8de" stroke-width="0.9"/>
  <rect x="172.0" y="189.0" width="12.5" height="12.5" rx="7" fill="#dfe8f5" stroke="#b9c8de" stroke-width="0.9"/>
  <rect x="187.5" y="189.0" width="12.5" height="12.5" rx="7" fill="#dfe8f5" stroke="#b9c8de" stroke-width="0.9"/>
  <rect x="203.0" y="189.0" width="12.5" height="12.5" rx="7" fill="#dfe8f5" stroke="#b9c8de" stroke-width="0.9"/>
  <rect x="218.5" y="189.0" width="12.5" height="12.5" rx="7" fill="#dfe8f5" stroke="#b9c8de" stroke-width="0.9"/>
  <rect x="48.0" y="204.5" width="12.5" height="12.5" rx="7" fill="#dfe8f5" stroke="#b9c8de" stroke-width="0.9"/>
  <rect x="63.5" y="204.5" width="12.5" height="12.5" rx="7" fill="#dfe8f5" stroke="#b9c8de" stroke-width="0.9"/>
  <rect x="79.0" y="204.5" width="12.5" height="12.5" rx="7" fill="#dfe8f5" stroke="#b9c8de" stroke-width="0.9"/>
  <rect x="94.5" y="204.5" width="12.5" height="12.5" rx="7" fill="#dfe8f5" stroke="#b9c8de" stroke-width="0.9"/>
  <rect x="110.0" y="204.5" width="12.5" height="12.5" rx="7" fill="#dfe8f5" stroke="#b9c8de" stroke-width="0.9"/>
  <rect x="125.5" y="204.5" width="12.5" height="12.5" rx="7" fill="#dfe8f5" stroke="#b9c8de" stroke-width="0.9"/>
  <rect x="141.0" y="204.5" width="12.5" height="12.5" rx="7" fill="#dfe8f5" stroke="#b9c8de" stroke-width="0.9"/>
  <rect x="156.5" y="204.5" width="12.5" height="12.5" rx="7" fill="#dfe8f5" stroke="#b9c8de" stroke-width="0.9"/>
  <rect x="172.0" y="204.5" width="12.5" height="12.5" rx="7" fill="#dfe8f5" stroke="#b9c8de" stroke-width="0.9"/>
  <rect x="187.5" y="204.5" width="12.5" height="12.5" rx="7" fill="#dfe8f5" stroke="#b9c8de" stroke-width="0.9"/>
  <rect x="203.0" y="204.5" width="12.5" height="12.5" rx="7" fill="#dfe8f5" stroke="#b9c8de" stroke-width="0.9"/>
  <rect x="218.5" y="204.5" width="12.5" height="12.5" rx="7" fill="#dfe8f5" stroke="#b9c8de" stroke-width="0.9"/>
  <text x="40" y="105.0" font-family="SFMono-Regular, Menlo, Consolas, 'Liberation Mono', monospace" font-size="9" font-weight="400" fill="#5d6b85" text-anchor="middle">A</text>
  <text x="40" y="120.5" font-family="SFMono-Regular, Menlo, Consolas, 'Liberation Mono', monospace" font-size="9" font-weight="400" fill="#5d6b85" text-anchor="middle">B</text>
  <text x="40" y="136.0" font-family="SFMono-Regular, Menlo, Consolas, 'Liberation Mono', monospace" font-size="9" font-weight="400" fill="#5d6b85" text-anchor="middle">C</text>
  <text x="40" y="151.5" font-family="SFMono-Regular, Menlo, Consolas, 'Liberation Mono', monospace" font-size="9" font-weight="400" fill="#5d6b85" text-anchor="middle">D</text>
  <text x="40" y="167.0" font-family="SFMono-Regular, Menlo, Consolas, 'Liberation Mono', monospace" font-size="9" font-weight="400" fill="#5d6b85" text-anchor="middle">E</text>
  <text x="40" y="182.5" font-family="SFMono-Regular, Menlo, Consolas, 'Liberation Mono', monospace" font-size="9" font-weight="400" fill="#5d6b85" text-anchor="middle">F</text>
  <text x="40" y="198.0" font-family="SFMono-Regular, Menlo, Consolas, 'Liberation Mono', monospace" font-size="9" font-weight="400" fill="#5d6b85" text-anchor="middle">G</text>
  <text x="40" y="213.5" font-family="SFMono-Regular, Menlo, Consolas, 'Liberation Mono', monospace" font-size="9" font-weight="400" fill="#5d6b85" text-anchor="middle">H</text>
  <text x="54.0" y="90" font-family="SFMono-Regular, Menlo, Consolas, 'Liberation Mono', monospace" font-size="8" font-weight="400" fill="#5d6b85" text-anchor="middle">01</text>
  <text x="69.5" y="90" font-family="SFMono-Regular, Menlo, Consolas, 'Liberation Mono', monospace" font-size="8" font-weight="400" fill="#5d6b85" text-anchor="middle">02</text>
  <text x="85.0" y="90" font-family="SFMono-Regular, Menlo, Consolas, 'Liberation Mono', monospace" font-size="8" font-weight="400" fill="#5d6b85" text-anchor="middle">03</text>
  <text x="100.5" y="90" font-family="SFMono-Regular, Menlo, Consolas, 'Liberation Mono', monospace" font-size="8" font-weight="400" fill="#5d6b85" text-anchor="middle">04</text>
  <text x="116.0" y="90" font-family="SFMono-Regular, Menlo, Consolas, 'Liberation Mono', monospace" font-size="8" font-weight="400" fill="#5d6b85" text-anchor="middle">05</text>
  <text x="131.5" y="90" font-family="SFMono-Regular, Menlo, Consolas, 'Liberation Mono', monospace" font-size="8" font-weight="400" fill="#5d6b85" text-anchor="middle">06</text>
  <text x="147.0" y="90" font-family="SFMono-Regular, Menlo, Consolas, 'Liberation Mono', monospace" font-size="8" font-weight="400" fill="#5d6b85" text-anchor="middle">07</text>
  <text x="162.5" y="90" font-family="SFMono-Regular, Menlo, Consolas, 'Liberation Mono', monospace" font-size="8" font-weight="400" fill="#5d6b85" text-anchor="middle">08</text>
  <text x="178.0" y="90" font-family="SFMono-Regular, Menlo, Consolas, 'Liberation Mono', monospace" font-size="8" font-weight="400" fill="#5d6b85" text-anchor="middle">09</text>
  <text x="193.5" y="90" font-family="SFMono-Regular, Menlo, Consolas, 'Liberation Mono', monospace" font-size="8" font-weight="400" fill="#5d6b85" text-anchor="middle">10</text>
  <text x="209.0" y="90" font-family="SFMono-Regular, Menlo, Consolas, 'Liberation Mono', monospace" font-size="8" font-weight="400" fill="#5d6b85" text-anchor="middle">11</text>
  <text x="224.5" y="90" font-family="SFMono-Regular, Menlo, Consolas, 'Liberation Mono', monospace" font-size="8" font-weight="400" fill="#5d6b85" text-anchor="middle">12</text>
  <text x="88" y="246.0" font-family="Inter, -apple-system, BlinkMacSystemFont, 'Segoe UI', Helvetica, Arial, sans-serif" font-size="12" font-weight="600" fill="#1f7a8c" text-anchor="start">well B/03 highlighted</text>
  <line x1="264.0" y1="175" x2="308.0" y2="175" stroke="#5d6b85" stroke-width="1.6" stroke-linecap="round" marker-end="url(#arrow)"/>
  <rect x="314" y="84" width="518" height="255" rx="6" fill="#f2f5fa" stroke="#d5deeb" stroke-width="1.2"/>
  <text x="330" y="108" font-family="SFMono-Regular, Menlo, Consolas, 'Liberation Mono', monospace" font-size="12.5" font-weight="400" fill="#16233d" text-anchor="start">plate.zarr/</text>
  <text x="350" y="133" font-family="SFMono-Regular, Menlo, Consolas, 'Liberation Mono', monospace" font-size="12.5" font-weight="400" fill="#16233d" text-anchor="start">└── .zattrs</text>
  <text x="832" y="133" font-family="Inter, -apple-system, BlinkMacSystemFont, 'Segoe UI', Helvetica, Arial, sans-serif" font-size="11.5" font-weight="400" fill="#5d6b85" text-anchor="end">rows, columns, acquisitions</text>
  <text x="350" y="158" font-family="SFMono-Regular, Menlo, Consolas, 'Liberation Mono', monospace" font-size="12.5" font-weight="600" fill="#1f7a8c" text-anchor="start">└── B/</text>
  <text x="832" y="158" font-family="Inter, -apple-system, BlinkMacSystemFont, 'Segoe UI', Helvetica, Arial, sans-serif" font-size="11.5" font-weight="400" fill="#5d6b85" text-anchor="end">row</text>
  <text x="370" y="183" font-family="SFMono-Regular, Menlo, Consolas, 'Liberation Mono', monospace" font-size="12.5" font-weight="600" fill="#1f7a8c" text-anchor="start">└── 03/</text>
  <text x="832" y="183" font-family="Inter, -apple-system, BlinkMacSystemFont, 'Segoe UI', Helvetica, Arial, sans-serif" font-size="11.5" font-weight="400" fill="#5d6b85" text-anchor="end">column</text>
  <text x="390" y="208" font-family="SFMono-Regular, Menlo, Consolas, 'Liberation Mono', monospace" font-size="12.5" font-weight="600" fill="#1f7a8c" text-anchor="start">└── 0/</text>
  <text x="832" y="208" font-family="Inter, -apple-system, BlinkMacSystemFont, 'Segoe UI', Helvetica, Arial, sans-serif" font-size="11.5" font-weight="400" fill="#5d6b85" text-anchor="end">the image</text>
  <text x="410" y="233" font-family="SFMono-Regular, Menlo, Consolas, 'Liberation Mono', monospace" font-size="12.5" font-weight="400" fill="#16233d" text-anchor="start">└── .zattrs</text>
  <text x="832" y="233" font-family="Inter, -apple-system, BlinkMacSystemFont, 'Segoe UI', Helvetica, Arial, sans-serif" font-size="11.5" font-weight="400" fill="#5d6b85" text-anchor="end">multiscales, omero</text>
  <text x="410" y="258" font-family="SFMono-Regular, Menlo, Consolas, 'Liberation Mono', monospace" font-size="12.5" font-weight="400" fill="#16233d" text-anchor="start">└── 0/  1/  2/  3/  4/</text>
  <text x="832" y="258" font-family="Inter, -apple-system, BlinkMacSystemFont, 'Segoe UI', Helvetica, Arial, sans-serif" font-size="11.5" font-weight="400" fill="#5d6b85" text-anchor="end">pyramid levels</text>
  <text x="410" y="283" font-family="SFMono-Regular, Menlo, Consolas, 'Liberation Mono', monospace" font-size="12.5" font-weight="400" fill="#16233d" text-anchor="start">└── labels/</text>
  <text x="832" y="283" font-family="Inter, -apple-system, BlinkMacSystemFont, 'Segoe UI', Helvetica, Arial, sans-serif" font-size="11.5" font-weight="400" fill="#5d6b85" text-anchor="end">segmentation masks</text>
  <text x="410" y="308" font-family="SFMono-Regular, Menlo, Consolas, 'Liberation Mono', monospace" font-size="12.5" font-weight="400" fill="#16233d" text-anchor="start">└── tables/</text>
  <text x="832" y="308" font-family="Inter, -apple-system, BlinkMacSystemFont, 'Segoe UI', Helvetica, Arial, sans-serif" font-size="11.5" font-weight="400" fill="#5d6b85" text-anchor="end">ROIs and measurements</text>
</svg>
